<mxfile host="65bd71144e">
    <diagram id="jrj6hPz1cWHJbjJtwb-U" name="第 1 页">
        <mxGraphModel dx="1192" dy="623" grid="1" gridSize="10" guides="1" tooltips="1" connect="1" arrows="1" fold="1" page="1" pageScale="1" pageWidth="827" pageHeight="1169" math="0" shadow="0">
            <root>
                <mxCell id="0"/>
                <mxCell id="1" parent="0"/>
                <mxCell id="33" value="" style="rounded=0;whiteSpace=wrap;html=1;strokeWidth=2;fillColor=#FFF7F7;" parent="1" vertex="1">
                    <mxGeometry x="60" y="240" width="600" height="280" as="geometry"/>
                </mxCell>
                <mxCell id="34" value="buffer" style="rounded=1;whiteSpace=wrap;html=1;strokeWidth=2;fontStyle=1;fillColor=#E9F3FF;" parent="1" vertex="1">
                    <mxGeometry x="265" y="330" width="190" height="100" as="geometry"/>
                </mxCell>
                <mxCell id="2" value="client" style="rounded=0;whiteSpace=wrap;html=1;strokeWidth=2;fontStyle=1;fillColor=#FFFFCC;strokeColor=#808080;" parent="1" vertex="1">
                    <mxGeometry x="90" y="40" width="240" height="100" as="geometry"/>
                </mxCell>
                <mxCell id="3" value="client" style="rounded=0;whiteSpace=wrap;html=1;strokeWidth=2;fontStyle=1;fillColor=#FFFFCC;strokeColor=#808080;" parent="1" vertex="1">
                    <mxGeometry x="80" y="50" width="240" height="100" as="geometry"/>
                </mxCell>
                <mxCell id="4" value="client" style="rounded=0;whiteSpace=wrap;html=1;strokeWidth=2;fontStyle=1;fillColor=#FFFFCC;strokeColor=#808080;" parent="1" vertex="1">
                    <mxGeometry x="70" y="60" width="240" height="100" as="geometry"/>
                </mxCell>
                <mxCell id="5" value="buffer" style="rounded=1;whiteSpace=wrap;html=1;strokeWidth=2;fontStyle=1;fillColor=#CCE5FF;" parent="1" vertex="1">
                    <mxGeometry x="260" y="340" width="190" height="100" as="geometry"/>
                </mxCell>
                <mxCell id="6" value="" style="endArrow=none;dashed=1;html=1;dashPattern=1 3;strokeWidth=2;" parent="1" edge="1">
                    <mxGeometry width="50" height="50" relative="1" as="geometry">
                        <mxPoint x="40" y="229.31" as="sourcePoint"/>
                        <mxPoint x="650" y="229.31" as="targetPoint"/>
                    </mxGeometry>
                </mxCell>
                <mxCell id="7" value="client" style="rounded=0;whiteSpace=wrap;html=1;strokeWidth=2;fontStyle=1;fillColor=#FFFF99;" parent="1" vertex="1">
                    <mxGeometry x="60" y="70" width="240" height="100" as="geometry"/>
                </mxCell>
                <mxCell id="8" value="server" style="rounded=0;whiteSpace=wrap;html=1;strokeWidth=2;fontStyle=1;fillColor=#E6FFCC;" parent="1" vertex="1">
                    <mxGeometry x="420" y="70" width="240" height="100" as="geometry"/>
                </mxCell>
                <mxCell id="9" value="" style="endArrow=classic;html=1;exitX=0.25;exitY=1;exitDx=0;exitDy=0;strokeWidth=2;entryX=0.5;entryY=0;entryDx=0;entryDy=0;" parent="1" source="7" target="13" edge="1">
                    <mxGeometry width="50" height="50" relative="1" as="geometry">
                        <mxPoint x="50" y="250" as="sourcePoint"/>
                        <mxPoint x="90" y="160" as="targetPoint"/>
                    </mxGeometry>
                </mxCell>
                <mxCell id="10" value="" style="endArrow=classic;html=1;entryX=0.578;entryY=1.012;entryDx=0;entryDy=0;strokeWidth=2;exitX=0.5;exitY=0;exitDx=0;exitDy=0;entryPerimeter=0;" parent="1" source="14" target="8" edge="1">
                    <mxGeometry width="50" height="50" relative="1" as="geometry">
                        <mxPoint x="560" y="210" as="sourcePoint"/>
                        <mxPoint x="130" y="230" as="targetPoint"/>
                    </mxGeometry>
                </mxCell>
                <mxCell id="11" value="" style="curved=1;endArrow=classic;html=1;strokeWidth=2;exitX=0.5;exitY=1;exitDx=0;exitDy=0;entryX=0;entryY=0.5;entryDx=0;entryDy=0;" parent="1" source="13" target="5" edge="1">
                    <mxGeometry width="50" height="50" relative="1" as="geometry">
                        <mxPoint x="120" y="230" as="sourcePoint"/>
                        <mxPoint x="170" y="290" as="targetPoint"/>
                        <Array as="points">
                            <mxPoint x="120" y="260"/>
                            <mxPoint x="140" y="390"/>
                        </Array>
                    </mxGeometry>
                </mxCell>
                <mxCell id="46" value="work 1" style="edgeLabel;html=1;align=center;verticalAlign=middle;resizable=0;points=[];labelBackgroundColor=none;" parent="11" vertex="1" connectable="0">
                    <mxGeometry x="0.3724" y="8" relative="1" as="geometry">
                        <mxPoint x="-44" y="-2" as="offset"/>
                    </mxGeometry>
                </mxCell>
                <mxCell id="12" value="" style="curved=1;endArrow=classic;html=1;strokeWidth=2;entryX=0.5;entryY=1;entryDx=0;entryDy=0;exitX=1;exitY=0.5;exitDx=0;exitDy=0;" parent="1" source="5" target="14" edge="1">
                    <mxGeometry width="50" height="50" relative="1" as="geometry">
                        <mxPoint x="480" y="290" as="sourcePoint"/>
                        <mxPoint x="560" y="240" as="targetPoint"/>
                        <Array as="points">
                            <mxPoint x="540" y="390"/>
                            <mxPoint x="560" y="290"/>
                        </Array>
                    </mxGeometry>
                </mxCell>
                <mxCell id="13" value="uapi" style="text;html=1;align=center;verticalAlign=middle;whiteSpace=wrap;rounded=0;" parent="1" vertex="1">
                    <mxGeometry x="90" y="200" width="60" height="40" as="geometry"/>
                </mxCell>
                <mxCell id="14" value="uapi" style="text;html=1;align=center;verticalAlign=middle;whiteSpace=wrap;rounded=0;" parent="1" vertex="1">
                    <mxGeometry x="530" y="200" width="60" height="40" as="geometry"/>
                </mxCell>
                <mxCell id="15" value="user" style="text;html=1;align=center;verticalAlign=middle;whiteSpace=wrap;rounded=0;" parent="1" vertex="1">
                    <mxGeometry y="150" width="60" height="30" as="geometry"/>
                </mxCell>
                <mxCell id="16" value="kernel" style="text;html=1;align=center;verticalAlign=middle;whiteSpace=wrap;rounded=0;" parent="1" vertex="1">
                    <mxGeometry y="240" width="60" height="30" as="geometry"/>
                </mxCell>
                <mxCell id="17" value="service ref" style="rounded=0;whiteSpace=wrap;html=1;strokeWidth=2;fontStyle=1;fillColor=#CC99FF;" parent="1" vertex="1">
                    <mxGeometry x="70" y="140" width="80" height="20" as="geometry"/>
                </mxCell>
                <mxCell id="18" value="service ref" style="rounded=0;whiteSpace=wrap;html=1;strokeWidth=2;fontStyle=1;fillColor=#CC99FF;" parent="1" vertex="1">
                    <mxGeometry x="160" y="140" width="80" height="20" as="geometry"/>
                </mxCell>
                <mxCell id="19" value="service&amp;nbsp;" style="rounded=0;whiteSpace=wrap;html=1;strokeWidth=2;fontStyle=1;fillColor=#FF66B3;" parent="1" vertex="1">
                    <mxGeometry x="430" y="140" width="80" height="20" as="geometry"/>
                </mxCell>
                <mxCell id="20" value="service&amp;nbsp;" style="rounded=0;whiteSpace=wrap;html=1;strokeWidth=2;fontStyle=1;fillColor=#FF66B3;" parent="1" vertex="1">
                    <mxGeometry x="530" y="140" width="80" height="20" as="geometry"/>
                </mxCell>
                <mxCell id="21" value="ref" style="rounded=0;whiteSpace=wrap;html=1;strokeWidth=2;fontStyle=1;fillColor=#CC99FF;" parent="1" vertex="1">
                    <mxGeometry x="70" y="300" width="80" height="20" as="geometry"/>
                </mxCell>
                <mxCell id="24" value="node" style="rounded=0;whiteSpace=wrap;html=1;strokeWidth=2;fontStyle=1;fillColor=#FF66B3;" parent="1" vertex="1">
                    <mxGeometry x="540" y="300" width="80" height="20" as="geometry"/>
                </mxCell>
                <mxCell id="37" value="" style="curved=1;endArrow=classic;html=1;strokeWidth=2;exitX=0.538;exitY=1.028;exitDx=0;exitDy=0;entryX=0;entryY=0.25;entryDx=0;entryDy=0;exitPerimeter=0;strokeColor=#333333;" parent="1" source="7" target="5" edge="1">
                    <mxGeometry width="50" height="50" relative="1" as="geometry">
                        <mxPoint x="190" y="230" as="sourcePoint"/>
                        <mxPoint x="330" y="380" as="targetPoint"/>
                        <Array as="points">
                            <mxPoint x="190" y="250"/>
                            <mxPoint x="210" y="360"/>
                        </Array>
                    </mxGeometry>
                </mxCell>
                <mxCell id="47" value="work 2" style="edgeLabel;html=1;align=center;verticalAlign=middle;resizable=0;points=[];labelBackgroundColor=none;" parent="37" vertex="1" connectable="0">
                    <mxGeometry x="0.7333" y="5" relative="1" as="geometry">
                        <mxPoint x="-48" y="-7" as="offset"/>
                    </mxGeometry>
                </mxCell>
                <mxCell id="22" value="ref" style="rounded=0;whiteSpace=wrap;html=1;strokeWidth=2;fontStyle=1;fillColor=#F2E2FF;" parent="1" vertex="1">
                    <mxGeometry x="170" y="300" width="80" height="20" as="geometry"/>
                </mxCell>
                <mxCell id="38" value="" style="curved=1;endArrow=classic;html=1;strokeWidth=2;exitX=1.007;exitY=0.332;exitDx=0;exitDy=0;entryX=0.25;entryY=1;entryDx=0;entryDy=0;exitPerimeter=0;strokeColor=#333333;" parent="1" source="34" target="8" edge="1">
                    <mxGeometry width="50" height="50" relative="1" as="geometry">
                        <mxPoint x="820" y="430" as="sourcePoint"/>
                        <mxPoint x="891" y="622" as="targetPoint"/>
                        <Array as="points">
                            <mxPoint x="470" y="363"/>
                            <mxPoint x="490" y="330"/>
                        </Array>
                    </mxGeometry>
                </mxCell>
                <mxCell id="23" value="node" style="rounded=0;whiteSpace=wrap;html=1;strokeWidth=2;fontStyle=1;fillColor=light-dark(#FFC4E0,#FFCCE6);" parent="1" vertex="1">
                    <mxGeometry x="440" y="300" width="80" height="20" as="geometry"/>
                </mxCell>
                <mxCell id="40" value="work 1" style="rounded=0;whiteSpace=wrap;html=1;strokeColor=none;fillColor=#379639;shadow=1;" parent="1" vertex="1">
                    <mxGeometry x="140" y="460" width="220" height="20" as="geometry"/>
                </mxCell>
                <mxCell id="41" value="sleeping" style="rounded=0;whiteSpace=wrap;html=1;strokeColor=none;fillColor=#D5ECBE;shadow=1;" parent="1" vertex="1">
                    <mxGeometry x="140" y="490" width="220" height="20" as="geometry"/>
                </mxCell>
                <mxCell id="42" value="sleeping" style="rounded=0;whiteSpace=wrap;html=1;strokeColor=none;fillColor=#D5ECBE;shadow=1;" parent="1" vertex="1">
                    <mxGeometry x="370" y="460" width="250" height="20" as="geometry"/>
                </mxCell>
                <mxCell id="43" value="work 2" style="rounded=0;whiteSpace=wrap;html=1;strokeColor=none;fillColor=#379639;shadow=1;" parent="1" vertex="1">
                    <mxGeometry x="370" y="490" width="250" height="20" as="geometry"/>
                </mxCell>
                <mxCell id="44" value="thread 1" style="text;html=1;align=center;verticalAlign=middle;whiteSpace=wrap;rounded=0;fontStyle=1" parent="1" vertex="1">
                    <mxGeometry x="70" y="455" width="60" height="30" as="geometry"/>
                </mxCell>
                <mxCell id="45" value="thread 2" style="text;html=1;align=center;verticalAlign=middle;whiteSpace=wrap;rounded=0;fontStyle=1" parent="1" vertex="1">
                    <mxGeometry x="70" y="480" width="60" height="30" as="geometry"/>
                </mxCell>
                <mxCell id="48" value="proc" style="text;html=1;align=center;verticalAlign=middle;whiteSpace=wrap;rounded=0;fontStyle=1;fontSize=14;" parent="1" vertex="1">
                    <mxGeometry x="600" y="240" width="60" height="30" as="geometry"/>
                </mxCell>
            </root>
        </mxGraphModel>
    </diagram>
</mxfile>